<svg width="77" height="14" viewBox="0 0 77 14" fill="none" xmlns="http://www.w3.org/2000/svg">
<path d="M5.328 10L3.336 6.58H2.016V10H0.924V1.636H3.624C4.256 1.636 4.788 1.744 5.22 1.96C5.66 2.176 5.988 2.468 6.204 2.836C6.42 3.204 6.528 3.624 6.528 4.096C6.528 4.672 6.36 5.18 6.024 5.62C5.696 6.06 5.2 6.352 4.536 6.496L6.636 10H5.328ZM2.016 5.704H3.624C4.216 5.704 4.66 5.56 4.956 5.272C5.252 4.976 5.4 4.584 5.4 4.096C5.4 3.6 5.252 3.216 4.956 2.944C4.668 2.672 4.224 2.536 3.624 2.536H2.016V5.704ZM14.2248 6.46C14.2248 6.668 14.2128 6.888 14.1888 7.12H8.93278C8.97278 7.768 9.19278 8.276 9.59278 8.644C10.0008 9.004 10.4928 9.184 11.0688 9.184C11.5408 9.184 11.9328 9.076 12.2448 8.86C12.5648 8.636 12.7888 8.34 12.9168 7.972H14.0928C13.9168 8.604 13.5648 9.12 13.0368 9.52C12.5088 9.912 11.8528 10.108 11.0688 10.108C10.4448 10.108 9.88478 9.968 9.38878 9.688C8.90078 9.408 8.51678 9.012 8.23678 8.5C7.95678 7.98 7.81678 7.38 7.81678 6.7C7.81678 6.02 7.95278 5.424 8.22478 4.912C8.49678 4.4 8.87678 4.008 9.36478 3.736C9.86078 3.456 10.4288 3.316 11.0688 3.316C11.6928 3.316 12.2448 3.452 12.7248 3.724C13.2048 3.996 13.5728 4.372 13.8288 4.852C14.0928 5.324 14.2248 5.86 14.2248 6.46ZM13.0968 6.232C13.0968 5.816 13.0048 5.46 12.8208 5.164C12.6368 4.86 12.3848 4.632 12.0648 4.48C11.7528 4.32 11.4048 4.24 11.0208 4.24C10.4688 4.24 9.99678 4.416 9.60478 4.768C9.22078 5.12 9.00078 5.608 8.94478 6.232H13.0968ZM16.9982 4.324V8.2C16.9982 8.52 17.0662 8.748 17.2022 8.884C17.3382 9.012 17.5742 9.076 17.9102 9.076H18.7142V10H17.7302C17.1222 10 16.6662 9.86 16.3622 9.58C16.0582 9.3 15.9062 8.84 15.9062 8.2V4.324H15.0542V3.424H15.9062V1.768H16.9982V3.424H18.7142V4.324H16.9982ZM25.8693 3.424V10H24.7773V9.028C24.5693 9.364 24.2773 9.628 23.9013 9.82C23.5333 10.004 23.1253 10.096 22.6773 10.096C22.1653 10.096 21.7053 9.992 21.2973 9.784C20.8893 9.568 20.5653 9.248 20.3253 8.824C20.0933 8.4 19.9773 7.884 19.9773 7.276V3.424H21.0573V7.132C21.0573 7.78 21.2213 8.28 21.5493 8.632C21.8773 8.976 22.3253 9.148 22.8933 9.148C23.4773 9.148 23.9373 8.968 24.2733 8.608C24.6093 8.248 24.7773 7.724 24.7773 7.036V3.424H25.8693ZM28.8051 4.492C28.9971 4.116 29.2691 3.824 29.6211 3.616C29.9811 3.408 30.4171 3.304 30.9291 3.304V4.432H30.6411C29.4171 4.432 28.8051 5.096 28.8051 6.424V10H27.7131V3.424H28.8051V4.492ZM35.3936 3.304C36.1936 3.304 36.8416 3.548 37.3376 4.036C37.8336 4.516 38.0816 5.212 38.0816 6.124V10H37.0016V6.28C37.0016 5.624 36.8376 5.124 36.5096 4.78C36.1816 4.428 35.7336 4.252 35.1656 4.252C34.5896 4.252 34.1296 4.432 33.7856 4.792C33.4496 5.152 33.2816 5.676 33.2816 6.364V10H32.1896V3.424H33.2816V4.36C33.4976 4.024 33.7896 3.764 34.1576 3.58C34.5336 3.396 34.9456 3.304 35.3936 3.304ZM48.6566 4.084C48.6566 4.78 48.4166 5.36 47.9366 5.824C47.4646 6.28 46.7406 6.508 45.7646 6.508H44.1566V10H43.0646V1.636H45.7646C46.7086 1.636 47.4246 1.864 47.9126 2.32C48.4086 2.776 48.6566 3.364 48.6566 4.084ZM45.7646 5.608C46.3726 5.608 46.8206 5.476 47.1086 5.212C47.3966 4.948 47.5406 4.572 47.5406 4.084C47.5406 3.052 46.9486 2.536 45.7646 2.536H44.1566V5.608H45.7646ZM52.8818 10.108C52.2658 10.108 51.7058 9.968 51.2018 9.688C50.7058 9.408 50.3138 9.012 50.0258 8.5C49.7458 7.98 49.6058 7.38 49.6058 6.7C49.6058 6.028 49.7498 5.436 50.0378 4.924C50.3338 4.404 50.7338 4.008 51.2378 3.736C51.7418 3.456 52.3058 3.316 52.9298 3.316C53.5538 3.316 54.1178 3.456 54.6218 3.736C55.1258 4.008 55.5218 4.4 55.8098 4.912C56.1058 5.424 56.2538 6.02 56.2538 6.7C56.2538 7.38 56.1018 7.98 55.7978 8.5C55.5018 9.012 55.0978 9.408 54.5858 9.688C54.0738 9.968 53.5058 10.108 52.8818 10.108ZM52.8818 9.148C53.2738 9.148 53.6418 9.056 53.9858 8.872C54.3298 8.688 54.6058 8.412 54.8138 8.044C55.0298 7.676 55.1378 7.228 55.1378 6.7C55.1378 6.172 55.0338 5.724 54.8258 5.356C54.6178 4.988 54.3458 4.716 54.0098 4.54C53.6738 4.356 53.3098 4.264 52.9178 4.264C52.5178 4.264 52.1498 4.356 51.8138 4.54C51.4858 4.716 51.2218 4.988 51.0218 5.356C50.8218 5.724 50.7218 6.172 50.7218 6.7C50.7218 7.236 50.8178 7.688 51.0098 8.056C51.2098 8.424 51.4738 8.7 51.8018 8.884C52.1298 9.06 52.4898 9.148 52.8818 9.148ZM58.7816 1.12V10H57.6896V1.12H58.7816ZM61.2068 2.356C60.9988 2.356 60.8228 2.284 60.6788 2.14C60.5348 1.996 60.4628 1.82 60.4628 1.612C60.4628 1.404 60.5348 1.228 60.6788 1.084C60.8228 0.94 60.9988 0.868 61.2068 0.868C61.4068 0.868 61.5748 0.94 61.7108 1.084C61.8548 1.228 61.9268 1.404 61.9268 1.612C61.9268 1.82 61.8548 1.996 61.7108 2.14C61.5748 2.284 61.4068 2.356 61.2068 2.356ZM61.7348 3.424V10H60.6428V3.424H61.7348ZM63.1879 6.7C63.1879 6.02 63.3239 5.428 63.5959 4.924C63.8679 4.412 64.2439 4.016 64.7239 3.736C65.2119 3.456 65.7679 3.316 66.3919 3.316C67.1999 3.316 67.8639 3.512 68.3839 3.904C68.9119 4.296 69.2599 4.84 69.4279 5.536H68.2519C68.1399 5.136 67.9199 4.82 67.5919 4.588C67.2719 4.356 66.8719 4.24 66.3919 4.24C65.7679 4.24 65.2639 4.456 64.8799 4.888C64.4959 5.312 64.3039 5.916 64.3039 6.7C64.3039 7.492 64.4959 8.104 64.8799 8.536C65.2639 8.968 65.7679 9.184 66.3919 9.184C66.8719 9.184 67.2719 9.072 67.5919 8.848C67.9119 8.624 68.1319 8.304 68.2519 7.888H69.4279C69.2519 8.56 68.8999 9.1 68.3719 9.508C67.8439 9.908 67.1839 10.108 66.3919 10.108C65.7679 10.108 65.2119 9.968 64.7239 9.688C64.2439 9.408 63.8679 9.012 63.5959 8.5C63.3239 7.988 63.1879 7.388 63.1879 6.7ZM76.5489 3.424L72.5889 13.096H71.4609L72.7569 9.928L70.1049 3.424H71.3169L73.3809 8.752L75.4209 3.424H76.5489Z" fill="#626262"/>
</svg>
